<?xml version="1.0" encoding="iso-8859-1"?>
<!-- Uploaded to: SVG Repo, www.svgrepo.com, Generator: SVG Repo Mixer Tools -->
<!DOCTYPE svg PUBLIC "-//W3C//DTD SVG 1.1//EN" "http://www.w3.org/Graphics/SVG/1.1/DTD/svg11.dtd">
<svg fill="#000000" height="800px" width="800px" version="1.1" id="Capa_1" xmlns="http://www.w3.org/2000/svg" xmlns:xlink="http://www.w3.org/1999/xlink" 
	 viewBox="0 0 206.814 206.814" xml:space="preserve">
<g>
	<path d="M129.244,52.316h-0.936v-8.737c0-2.761-2.238-5-5-5h-1.535l-4.194-18.172c-0.523-2.269-2.544-3.875-4.872-3.875h-3.903V5
		c0-2.761-2.238-5-5-5s-5,2.239-5,5v11.531h-3.904c-2.328,0-4.349,1.607-4.872,3.875l-4.194,18.172h-1.534c-2.762,0-5,2.239-5,5
		v8.737h-0.937c-2.762,0-5,2.239-5,5v144.498c0,2.761,2.238,5,5,5h50.88c2.762,0,5-2.239,5-5V57.316
		C134.244,54.555,132.006,52.316,129.244,52.316z"/>
	<path d="M196.277,94.477l-4.409-1.982v-6.746c0-2.761-2.238-5-5-5h-21.135l-14.74-6.625c-1.546-0.694-3.342-0.559-4.766,0.362
		s-2.284,2.502-2.284,4.198v123.129c0,2.761,2.238,5,5,5h45.283c2.762,0,5-2.239,5-5V99.037
		C199.227,97.069,198.072,95.284,196.277,94.477z"/>
	<path d="M57.869,101.5H12.587c-2.762,0-5,2.239-5,5v95.314c0,2.761,2.238,5,5,5h45.282c2.762,0,5-2.239,5-5V106.5
		C62.869,103.738,60.631,101.5,57.869,101.5z"/>
</g>
</svg>